<svg width="138" height="46" viewBox="0 0 138 46" fill="none" xmlns="http://www.w3.org/2000/svg">
<circle cx="20.5" cy="23" r="10" fill="#FBBF24"/>
<path d="M58.2285 19.0176V16.7812H46.7637V19.0176H51.0898V31H53.8438V19.0176H58.2285ZM66.2152 25.6875L68.891 31H71.8305V30.873L68.7738 25.0039C69.1645 24.8281 69.516 24.6198 69.8285 24.3789C70.1475 24.138 70.421 23.8548 70.6488 23.5293C70.8702 23.2103 71.0395 22.849 71.1566 22.4453C71.2803 22.0352 71.3422 21.5762 71.3422 21.0684C71.3422 20.3652 71.2185 19.7467 70.9711 19.2129C70.7302 18.679 70.3852 18.2331 69.9359 17.875C69.4802 17.5169 68.9333 17.2467 68.2953 17.0645C67.6573 16.8757 66.9444 16.7812 66.1566 16.7812H61.391V31H64.1352V25.6875H66.2152ZM64.1352 23.4609V19.0078H66.1566C66.5342 19.0078 66.8695 19.0534 67.1625 19.1445C67.4555 19.2357 67.7029 19.3659 67.9047 19.5352C68.1326 19.724 68.3018 19.9648 68.4125 20.2578C68.5297 20.5443 68.5883 20.8763 68.5883 21.2539C68.5883 21.5664 68.5427 21.8496 68.4516 22.1035C68.3669 22.3574 68.24 22.5755 68.0707 22.7578C67.8689 22.9857 67.6052 23.1615 67.2797 23.2852C66.9607 23.4023 66.5896 23.4609 66.1664 23.4609H64.1352ZM75.6082 16.7812V18.998H78.3133V28.793H75.6082V31H83.8309V28.793H81.0574V18.998H83.8309V16.7812H75.6082ZM98.4875 26.5469H95.7434C95.7173 26.9766 95.6457 27.3444 95.5285 27.6504C95.4113 27.9564 95.2518 28.207 95.05 28.4023C94.8482 28.5977 94.604 28.7409 94.3176 28.832C94.0311 28.9232 93.7089 28.9688 93.3508 28.9688C93.0839 28.9688 92.8397 28.9395 92.6184 28.8809C92.4035 28.8158 92.2082 28.7181 92.0324 28.5879C91.8697 28.4707 91.7232 28.3242 91.593 28.1484C91.4693 27.9727 91.3618 27.7708 91.2707 27.543C91.1405 27.2109 91.0428 26.8236 90.9777 26.3809C90.9191 25.9316 90.8898 25.4238 90.8898 24.8574V22.9238C90.8898 22.5072 90.9094 22.1198 90.9484 21.7617C90.9875 21.3971 91.0493 21.0651 91.134 20.7656C91.2447 20.3815 91.3911 20.0462 91.5734 19.7598C91.7622 19.4668 91.9901 19.2422 92.257 19.0859C92.4133 18.9948 92.5826 18.9264 92.7648 18.8809C92.9536 18.8353 93.1555 18.8125 93.3703 18.8125C93.774 18.8125 94.119 18.8678 94.4055 18.9785C94.6984 19.0827 94.9426 19.2389 95.1379 19.4473C95.3267 19.6621 95.4699 19.929 95.5676 20.248C95.6717 20.5671 95.7368 20.9382 95.7629 21.3613H98.4973C98.4322 20.6191 98.2759 19.9518 98.0285 19.3594C97.7811 18.7669 97.4426 18.2656 97.0129 17.8555C96.5832 17.4453 96.0624 17.1296 95.4504 16.9082C94.8449 16.6868 94.1516 16.5762 93.3703 16.5762C92.843 16.5762 92.3482 16.6445 91.8859 16.7812C91.4302 16.9115 91.0103 17.1003 90.6262 17.3477C90.1965 17.6406 89.8124 17.9987 89.4738 18.4219C89.1353 18.8451 88.8618 19.3268 88.6535 19.8672C88.4712 20.3099 88.3345 20.7917 88.2434 21.3125C88.1522 21.8268 88.1066 22.3704 88.1066 22.9434V24.8574C88.1066 25.4694 88.1555 26.0488 88.2531 26.5957C88.3573 27.1426 88.5038 27.6439 88.6926 28.0996C88.8879 28.5553 89.1255 28.972 89.4055 29.3496C89.6919 29.7272 90.0174 30.0495 90.382 30.3164C90.7792 30.6029 91.2251 30.8242 91.7199 30.9805C92.2212 31.1302 92.7648 31.2051 93.3508 31.2051C94.093 31.2051 94.7701 31.0977 95.382 30.8828C95.994 30.6615 96.5214 30.349 96.9641 29.9453C97.4068 29.5417 97.7583 29.0534 98.0187 28.4805C98.2857 27.9076 98.4419 27.263 98.4875 26.5469ZM102.832 16.7812V18.998H105.537V28.793H102.832V31H111.054V28.793H108.281V18.998H111.054V16.7812H102.832ZM122.83 28.0312L123.66 31H126.551L121.98 16.7812H119.49L114.832 31H117.723L118.562 28.0312H122.83ZM119.236 25.6973L120.73 20.4629L122.186 25.6973H119.236Z" fill="#F9FAFB"/>
</svg>
