<svg width="60" height="60" viewBox="0 0 60 60" fill="none" xmlns="http://www.w3.org/2000/svg">
<path d="M5 55H55" stroke="#F9FAFB" stroke-width="2" stroke-linecap="round" stroke-linejoin="round"/>
<path d="M15.9 43.4999L10 42.4999L5 32.4999L7.75 31.1249C8.44789 30.7733 9.21851 30.5901 10 30.5901C10.7815 30.5901 11.5521 30.7733 12.25 31.1249L12.675 31.3749C13.3729 31.7266 14.1435 31.9098 14.925 31.9098C15.7065 31.9098 16.4771 31.7266 17.175 31.3749L20 29.9999L12.5 14.9999L14.75 13.8749C15.5817 13.4658 16.5107 13.2959 17.4334 13.3842C18.356 13.4725 19.236 13.8155 19.975 14.3749L30.025 21.8749C30.7666 22.4392 31.6511 22.785 32.5787 22.8734C33.5064 22.9617 34.4402 22.7891 35.275 22.3749L45.75 17.2249C47.0886 16.5502 48.6307 16.3986 50.075 16.7999L52.5 17.4999C53.001 17.6391 53.4648 17.8881 53.8575 18.229C54.2502 18.5698 54.5621 18.9938 54.7704 19.4703C54.9787 19.9468 55.0782 20.4636 55.0617 20.9834C55.0452 21.5031 54.9131 22.0127 54.675 22.4749L53.725 24.3749C53.15 25.5249 52.225 26.4749 51.05 27.0749L18.95 42.9999C18.0061 43.4675 16.9387 43.625 15.9 43.4499V43.4999Z" stroke="#F9FAFB" stroke-width="2" stroke-linecap="round" stroke-linejoin="round"/>
</svg>
