<svg width="60" height="60" viewBox="0 0 60 60" fill="none" xmlns="http://www.w3.org/2000/svg">
<rect width="60" height="60" rx="8" fill="white"/>
<path d="M30.0001 15.1423L25.708 12.6863L30.0001 10.2102L34.2962 12.6903L30.0001 15.1423Z" fill="#FFCE03"/>
<path d="M38.5986 20.1269L42.8427 22.571L47.1348 20.0989L42.8547 17.6268L38.5986 20.1269Z" fill="#FFCE03"/>
<path d="M42.8483 22.5746L42.8563 37.4589L34.308 42.4031L34.3 12.6903L30.0039 15.1584V49.7872L47.1364 39.895L47.1404 20.1065L42.8483 22.5746Z" fill="#FFCE03"/>
<path d="M12.8848 20.1069L17.1369 22.579L21.329 20.147L17.1489 17.6349L12.8848 20.1069Z" fill="#FFCE03"/>
<path d="M25.7096 32.4756L21.3415 35.0156V20.1592L21.3295 20.1512L17.1414 22.5793H17.1094V42.3558L17.1454 42.3758L25.7096 37.4477V32.4756Z" fill="#FFCE03"/>
<path d="M42.857 37.4595L34.3008 42.3756V37.4195L38.5929 34.9634V20.1271L42.849 22.5671L42.857 37.4595Z" fill="#F9A11B"/>
<path d="M30.0031 15.1594L30.0071 49.7883L25.707 47.3162L25.711 12.6874L30.0031 15.1594Z" fill="#F9A11B"/>
<path d="M12.9043 39.9396L17.1204 42.3756V22.5791L12.9043 20.1271V39.9396Z" fill="#F9A11B"/>
<path d="M25.7119 27.5594L21.3398 30.0635L21.3438 35.0236L25.7079 32.4916L25.7119 27.5594Z" fill="#F9A11B"/>
<path fill-rule="evenodd" clip-rule="evenodd" d="M30.0053 50C29.9693 50 29.9333 49.992 29.9013 49.972L25.6092 47.4959C25.5452 47.4599 25.5012 47.3879 25.5012 47.3119V37.7911L18.9949 41.5516L18.9927 41.5478L17.2505 42.5596C17.2185 42.5796 17.1825 42.5876 17.1465 42.5876C17.1105 42.5876 17.0745 42.5796 17.0385 42.5596L12.7544 40.0756C12.6904 40.0356 12.6504 39.9676 12.6504 39.8916L12.6784 20.1031C12.6784 20.0271 12.7184 19.9591 12.7824 19.9191L17.0425 17.447C17.1065 17.407 17.1905 17.407 17.2545 17.447L21.5226 19.9191C21.5866 19.9551 21.6266 20.0271 21.6266 20.1031L21.6324 29.6323L25.5012 27.4361V12.6871C25.5012 12.6111 25.5412 12.5431 25.6092 12.5031L29.9053 10.027C29.9693 9.991 30.0533 9.991 30.1173 10.027L34.4094 12.5071C34.4734 12.5431 34.5134 12.6151 34.5134 12.6911V37.0619L38.3815 34.8376V20.1265C38.3815 20.0505 38.4215 19.9825 38.4856 19.9425L42.7497 17.4425C42.8137 17.4025 42.8977 17.4025 42.9617 17.4425L47.2458 19.9185C47.3098 19.9545 47.3498 20.0265 47.3498 20.1025L47.3458 39.891C47.3458 39.967 47.3058 40.035 47.2378 40.075L42.9657 42.5471L42.9645 42.5451L34.4062 47.4991L34.4029 47.4934L30.1093 49.972C30.0773 49.992 30.0413 50 30.0053 50ZM21.6328 30.3649L21.6354 34.5927L25.3025 32.4787L21.6328 30.3649ZM25.5012 32.1038V27.9237L21.8462 29.9985L25.5012 32.1038ZM21.6384 39.534L25.5012 37.3014V32.8535L21.6357 35.0819L21.6384 39.534ZM42.6315 37.0475L38.8056 34.8398V30.3856L42.6315 32.5843V37.0475ZM42.6315 32.0962L38.8056 29.8958V25.425L42.6315 27.647V32.0962ZM42.6315 27.155L38.8056 24.9338V20.4955L42.6315 22.6978V27.155ZM42.8432 22.3276L39.0166 20.1268L42.8577 17.8745L46.7109 20.1001L42.8432 22.3276ZM43.0556 22.6971L46.9297 20.4622L46.9288 24.9147L43.0556 27.1719V22.6971ZM43.0556 27.6639L46.9287 25.4064L46.9278 29.8703L43.0556 32.1053V27.6639ZM43.0556 32.5934L46.9277 30.3605L46.9268 34.8283L43.0556 37.0685V32.5934ZM43.0556 37.5603L46.9267 35.3154L46.9258 39.771L43.0556 42.0048V37.5603ZM38.5808 39.6581L34.7258 37.4289L38.5943 35.2044L42.4491 37.4337L38.5808 39.6581ZM42.6315 37.8179L38.8052 40.0182V44.4628L42.6315 42.2478V37.8179ZM38.1533 39.904L34.5134 37.7968V41.9971L38.1533 39.904ZM34.5134 42.4862L38.3812 40.2621V44.7082L34.5134 46.9471V42.4862ZM29.7878 49.4186V44.9649L25.9252 42.722V47.1919L29.7878 49.4186ZM30.2118 44.9738V49.4249L34.0894 47.1879V42.7278L30.2118 44.9738ZM30.2118 39.5305V35.0734L34.0894 32.8339V37.293L30.2118 39.5305ZM29.7878 39.5212L25.9252 37.2987V32.8296L29.7878 35.0655V39.5212ZM29.7878 40.013V44.473L25.9252 42.2309V37.7867L29.7878 40.013ZM30.2118 40.0225V44.4821L34.0894 42.2409V37.7835L30.2118 40.0225ZM29.7878 34.5774V30.1152L25.9252 27.8879V32.3406L29.7878 34.5774ZM30.2118 30.1188V34.5853L34.0894 32.3435V27.8773L30.2118 30.1188ZM30.2118 29.6269V25.1809L34.0894 22.9419V27.3867L30.2118 29.6269ZM29.7878 24.6854V20.2251L25.9252 17.9962V22.4581L29.7878 24.6854ZM30.2118 20.2329V24.6928L34.0894 22.4516V17.9974L30.2118 20.2329ZM30.2118 19.7448V15.2845L34.0894 13.0491V17.5072L30.2118 19.7448ZM29.7878 19.7369V15.2767L25.9252 13.0479V17.5059L29.7878 19.7369ZM29.7878 29.6233V25.1735L25.9252 22.9482V27.3976L29.7878 29.6233ZM30.0065 14.9149L33.8677 12.6868L30.0093 10.455L26.1448 12.6844L30.0065 14.9149ZM13.0704 39.7716L16.9089 41.9962V37.5224L13.0759 35.2982L13.0704 39.7716ZM17.3329 42.0211V37.5609L21.2118 35.3191L21.2146 39.7676L17.3329 42.0211ZM17.3329 32.6293V37.0728L21.2115 34.8288L21.2088 30.3867L17.3329 32.6293ZM13.0825 29.8902L16.9089 32.1049V27.6409L13.088 25.4283L13.0825 29.8902ZM13.0819 30.377L16.9089 32.5966V37.0342L13.0765 34.8076L13.0819 30.377ZM17.3329 32.1374V27.6732L21.2058 25.4278L21.2085 29.8961L17.3329 32.1374ZM17.3329 22.7084V27.1812L21.2055 24.937L21.2027 20.4734L17.3329 22.7084ZM13.0886 24.9417L16.9089 27.1492V22.6912L13.0941 20.4867L13.0886 24.9417ZM13.2938 20.1115L17.1465 17.879L20.9914 20.1048L17.1358 22.3303L13.2938 20.1115Z" fill="black"/>
</svg>
